<?xml version="1.0" encoding="utf-8"?>
<!-- Generator: Adobe Illustrator 17.0.1, SVG Export Plug-In . SVG Version: 6.00 Build 0)  -->
<!DOCTYPE svg PUBLIC "-//W3C//DTD SVG 1.1//EN" "http://www.w3.org/Graphics/SVG/1.1/DTD/svg11.dtd">
<svg version="1.1" id="Layer_1" xmlns="http://www.w3.org/2000/svg" xmlns:xlink="http://www.w3.org/1999/xlink" x="0px" y="0px"
	 width="187.333px" height="241.727px" viewBox="0 0 187.333 241.727" enable-background="new 0 0 187.333 241.727"
	 xml:space="preserve">
<path display="none" fill="#FFFFFF" d="M110.192,13.201c-49.06,0-88.83,39.772-88.83,88.83c0,49.062,39.77,88.83,88.83,88.83
	s88.83-39.768,88.83-88.83C199.021,52.973,159.251,13.201,110.192,13.201z M163.224,141.315l-14.905,14.924
	c-0.748,0.745-1.946,0.745-2.716,0l-46.052-46.033l-6.942,35.216c-0.538,0.537-1.305,0.729-2.012,0.468
	c-0.689-0.249-1.171-0.89-1.268-1.627l-29.06-88.926c-0.063-0.579,0.127-1.144,0.522-1.531c0.415-0.407,0.979-0.618,1.545-0.549
	l87.363,24.08c0.437,0.027,0.869,0.226,1.173,0.537c0.206,0.208,0.34,0.426,0.451,0.714c0.24,0.698,0.071,1.489-0.451,1.984
	L117.21,92.591l46.025,46.002C163.996,139.353,163.996,140.551,163.224,141.315z"/>
<g id="Capa_3">
	<g>
		<path fill="#FFFFFF" d="M95.192,12.2c-49.06,0-88.83,39.772-88.83,88.83c0,49.062,39.77,88.83,88.83,88.83
			c49.06,0,88.83-39.768,88.83-88.83C184.021,51.973,144.251,12.2,95.192,12.2z M66,139.06H26.333v-20.275H66V139.06z M66,109.727
			H26.333V89.452H66V109.727z M66,78.727H26.333V58.452H66V78.727z M115.025,139.393H75.358v-20.275h39.667V139.393z
			 M115.025,110.06H75.358V89.785h39.667V110.06z M115.025,79.06H75.358V58.785h39.667V79.06z M166.025,139.727h-39.667v-20.275
			h39.667V139.727z M166.025,110.393h-39.667V90.118h39.667V110.393z M126.358,79.393V59.118h39.667v20.275H126.358z"/>
		<g display="none">
			<rect x="26.333" y="58.452" display="inline" fill="#FFFFFF" width="39.667" height="20.275"/>
			<rect x="26.333" y="89.452" display="inline" fill="#FFFFFF" width="39.667" height="20.275"/>
			<rect x="26.333" y="118.785" display="inline" fill="#FFFFFF" width="39.667" height="20.275"/>
			<rect x="75.358" y="58.785" display="inline" fill="#FFFFFF" width="39.667" height="20.275"/>
			<rect x="75.358" y="89.785" display="inline" fill="#FFFFFF" width="39.667" height="20.275"/>
			<rect x="75.358" y="119.118" display="inline" fill="#FFFFFF" width="39.667" height="20.275"/>
			<rect x="126.358" y="59.118" display="inline" fill="#FFFFFF" width="39.667" height="20.275"/>
			<rect x="126.358" y="90.118" display="inline" fill="#FFFFFF" width="39.667" height="20.275"/>
			<rect x="126.358" y="119.452" display="inline" fill="#FFFFFF" width="39.667" height="20.275"/>
		</g>
	</g>
</g>
<g id="Capa_2">
</g>
</svg>
