<?xml version="1.0" encoding="utf-8"?>
<!-- Generator: Adobe Illustrator 17.0.1, SVG Export Plug-In . SVG Version: 6.00 Build 0)  -->
<!DOCTYPE svg PUBLIC "-//W3C//DTD SVG 1.1//EN" "http://www.w3.org/Graphics/SVG/1.1/DTD/svg11.dtd">
<svg version="1.1" id="Layer_1" xmlns="http://www.w3.org/2000/svg" xmlns:xlink="http://www.w3.org/1999/xlink" x="0px" y="0px"
	 width="440.978px" height="200.99px" viewBox="0 0 440.978 200.99" enable-background="new 0 0 440.978 200.99"
	 xml:space="preserve">
<path display="none" fill="#FFFFFF" d="M165.78-276.513c-239.196,0-433.098,193.913-433.098,433.098
	c0,239.205,193.902,433.1,433.098,433.1s433.098-193.894,433.098-433.1C598.878-82.6,404.976-276.513,165.78-276.513z
	 M424.346,348.122l-72.673,72.765c-3.649,3.632-9.489,3.632-13.241,0L113.901,196.449L80.054,368.147
	c-2.622,2.62-6.365,3.555-9.809,2.283c-3.36-1.215-5.707-4.341-6.184-7.934L-77.626-71.072c-0.309-2.825,0.617-5.577,2.545-7.467
	c2.022-1.984,4.774-3.015,7.534-2.677L358.401,36.188c2.133,0.13,4.239,1.104,5.717,2.62c1.002,1.012,1.656,2.077,2.2,3.482
	c1.169,3.406,0.345,7.262-2.2,9.674l-164.118,58.6l224.401,224.288C428.108,338.556,428.108,344.396,424.346,348.122z"/>
<g id="Capa_2">
	<g>
		<g>
			<path opacity="0.4" fill="#FFFFFF" d="M114.976,62.636h31.978v127.443h-31.978v-13.471c-6.242,5.936-12.5,10.212-18.779,12.827
				c-6.279,2.615-13.084,3.924-20.416,3.924c-16.457,0-30.692-6.384-42.704-19.152c-12.012-12.767-18.017-28.64-18.017-47.615
				c0-19.679,5.811-35.803,17.433-48.377c11.622-12.572,25.738-18.86,42.354-18.86c7.643,0,14.817,1.446,21.525,4.335
				c6.708,2.889,12.909,7.224,18.605,13.002V62.636z M81.359,88.874c-9.885,0-18.095,3.496-24.633,10.484
				c-6.537,6.989-9.807,15.95-9.807,26.883c0,11.01,3.326,20.07,9.981,27.175c6.655,7.107,14.845,10.659,24.575,10.659
				c10.041,0,18.368-3.494,24.982-10.483c6.615-6.988,9.924-16.145,9.924-27.468c0-11.088-3.309-20.068-9.924-26.941
				C99.843,92.312,91.477,88.874,81.359,88.874z"/>
			<path fill="#FFFFFF" d="M75.781,188.985c-15.339,0-28.266-5.814-39.518-17.775c-11.325-12.037-16.829-26.631-16.829-44.618
				c0-18.45,5.474-33.727,16.271-45.408C46.562,69.439,59.365,63.73,74.846,63.73c7.005,0,13.665,1.338,19.795,3.978
				c6.154,2.651,11.948,6.707,17.22,12.055l7.488,7.597V67.01h23.23v118.696h-23.23v-19.292l-7.388,7.026
				c-5.824,5.538-11.694,9.561-17.447,11.958C88.8,187.778,82.497,188.985,75.781,188.985z M81.359,84.501
				c-11.096,0-20.459,3.993-27.827,11.869c-7.291,7.795-10.987,17.845-10.987,29.871c0,12.108,3.756,22.257,11.163,30.165
				c7.482,7.992,16.825,12.044,27.767,12.044c11.244,0,20.718-3.988,28.159-11.851c7.379-7.795,11.121-18.049,11.121-30.474
				c0-12.205-3.751-22.289-11.147-29.974C102.168,88.42,92.663,84.501,81.359,84.501z"/>
		</g>
		<g>
			<path opacity="0.4" fill="#FFFFFF" d="M190.577,13.439v63.253c5.777-5.778,12.024-10.112,18.741-13.002
				c6.715-2.888,13.899-4.334,21.553-4.334c16.633,0,30.766,6.287,42.403,18.859c11.635,12.574,17.453,28.698,17.453,48.377
				c0,18.976-6.014,34.848-18.04,47.616c-12.026,12.767-26.278,19.151-42.754,19.151c-7.341,0-14.173-1.309-20.499-3.924
				c-6.325-2.615-12.612-6.891-18.858-12.826v13.471h-31.745V13.439H190.577z M224.194,88.875c-10.074,0-18.43,3.437-25.067,10.308
				c-6.638,6.873-9.956,15.854-9.956,26.941c0,11.324,3.318,20.48,9.956,27.468c6.637,6.989,14.993,10.483,25.067,10.483
				c9.761,0,17.981-3.552,24.657-10.659c6.676-7.105,10.015-16.165,10.015-27.175c0-10.933-3.279-19.893-9.839-26.883
				C242.467,92.371,234.189,88.875,224.194,88.875z"/>
			<path fill="#FFFFFF" d="M229.934,188.985c-6.728,0-13.063-1.209-18.827-3.592c-5.798-2.397-11.692-6.419-17.517-11.955
				l-7.387-7.019v19.286h-22.996V17.813h22.996v69.439l7.467-7.467c5.357-5.357,11.204-9.421,17.378-12.077
				c6.137-2.64,12.807-3.978,19.824-3.978c15.501,0,28.321,5.71,39.193,17.456c10.809,11.681,16.288,26.957,16.288,45.406
				c0,17.734-5.669,32.745-16.849,44.617C258.237,183.171,245.293,188.985,229.934,188.985z M224.194,84.501
				c-11.258,0-20.749,3.917-28.213,11.643c-7.421,7.684-11.185,17.77-11.185,29.98c0,12.431,3.755,22.686,11.159,30.48
				c7.463,7.859,16.964,11.845,28.238,11.845c10.972,0,20.34-4.05,27.845-12.038c7.433-7.909,11.201-18.06,11.201-30.17
				c0-12.03-3.709-22.081-11.024-29.876C244.826,88.492,235.398,84.501,224.194,84.501z"/>
		</g>
		<g>
			<path opacity="0.4" fill="#FFFFFF" d="M432.256,88.406l-26.621,14.642c-5.004-5.231-9.949-8.862-14.836-10.894
				c-4.886-2.029-10.613-3.046-17.18-3.046c-11.962,0-21.639,3.567-29.026,10.702c-7.389,7.134-11.082,16.277-11.082,27.425
				c0,10.838,3.556,19.689,10.672,26.549c7.114,6.862,16.457,10.291,28.028,10.291c14.309,0,25.45-4.879,33.424-14.642
				l25.215,17.265c-13.666,17.776-32.955,26.661-57.865,26.661c-22.413,0-39.963-6.636-52.653-19.913
				c-12.691-13.274-19.034-28.815-19.034-46.62c0-12.337,3.084-23.699,9.254-34.086c6.167-10.385,14.777-18.546,25.828-24.481
				c11.049-5.934,23.407-8.903,37.073-8.903c12.651,0,24.013,2.519,34.087,7.555C417.615,71.949,425.853,79.114,432.256,88.406z"/>
			<path fill="#FFFFFF" d="M372.986,188.985c-21.068,0-37.719-6.245-49.49-18.561c-11.993-12.544-17.823-26.805-17.823-43.598
				c0-11.485,2.908-22.201,8.64-31.852c5.728-9.645,13.849-17.336,24.138-22.863c10.357-5.561,22.134-8.381,35.004-8.381
				c11.907,0,22.717,2.387,32.13,7.094c7.901,3.95,14.665,9.378,20.162,16.171l-19.345,10.64c-4.624-4.4-9.297-7.596-13.923-9.519
				c-5.401-2.244-11.746-3.381-18.86-3.381c-13.08,0-23.868,4.014-32.064,11.929c-8.24,7.956-12.418,18.242-12.418,30.57
				c0,12.024,4.041,22.016,12.011,29.698c7.923,7.642,18.374,11.516,31.064,11.516c14.091,0,25.549-4.449,34.123-13.236
				l18.103,12.395c-5.766,6.533-12.521,11.606-20.134,15.114C395.284,186.878,384.747,188.985,372.986,188.985z"/>
		</g>
	</g>
</g>
</svg>
