<?xml version="1.0" encoding="utf-8"?>
<!-- Generator: Adobe Illustrator 17.0.1, SVG Export Plug-In . SVG Version: 6.00 Build 0)  -->
<!DOCTYPE svg PUBLIC "-//W3C//DTD SVG 1.1//EN" "http://www.w3.org/Graphics/SVG/1.1/DTD/svg11.dtd">
<svg version="1.1" id="Layer_1" xmlns="http://www.w3.org/2000/svg" xmlns:xlink="http://www.w3.org/1999/xlink" x="0px" y="0px"
	 width="440.978px" height="200.99px" viewBox="0 0 440.978 200.99" enable-background="new 0 0 440.978 200.99"
	 xml:space="preserve">
<path display="none" fill="#FFFFFF" d="M165.78-276.513c-239.196,0-433.098,193.913-433.098,433.098
	c0,239.205,193.902,433.1,433.098,433.1s433.098-193.894,433.098-433.1C598.878-82.6,404.976-276.513,165.78-276.513z
	 M424.346,348.122l-72.673,72.765c-3.649,3.632-9.489,3.632-13.241,0L113.901,196.449L80.054,368.147
	c-2.622,2.62-6.365,3.555-9.809,2.283c-3.36-1.215-5.707-4.341-6.184-7.934L-77.626-71.072c-0.309-2.825,0.617-5.577,2.545-7.467
	c2.022-1.984,4.774-3.015,7.534-2.677L358.401,36.188c2.133,0.13,4.239,1.104,5.717,2.62c1.002,1.012,1.656,2.077,2.2,3.482
	c1.169,3.406,0.345,7.262-2.2,9.674L200,110.564l224.401,224.288C428.108,338.556,428.108,344.396,424.346,348.122z"/>
<g display="none">
	<path fill="none" d="M121.989-25.005v270h212v-270H121.989z M283.891,137.628c-0.707,0-1.021-0.833-1.021-2.711
		c0-0.503-0.19-1.166-0.422-1.473c-0.232-0.307-0.426-0.869-0.431-1.249c-0.006-0.425-0.452-1.113-1.159-1.785
		c-1.073-1.02-1.15-1.201-1.15-2.695c0-1.998-0.594-2.409-1.633-1.128c-0.374,0.461-0.812,1-0.972,1.198
		c-0.16,0.198-0.614,0.359-1.009,0.359c-1.152,0-2.134,0.808-2.134,1.757c0,1.152-0.901,1.101-2.413-0.135
		c-0.794-0.649-1.349-0.904-1.701-0.78c-0.492,0.174-0.488,0.215,0.072,0.721c1.398,1.265,1.181,1.298-9.106,1.378l-9.699,0.076
		l-0.08,3.449l-0.08,3.449l0.942,0.037c2.212,0.087,5.578,0.491,6.032,0.724c1.105,0.568,2.085,4.62,1.2,4.959
		c-1.055,0.405-2.748,0.172-3.25-0.448c-0.471-0.582-0.552-0.593-1.339-0.18c-0.995,0.521-2.419,0.959-3.999,1.229
		c-1.842,0.315-1.868,0.378-1.868,4.605v3.815l1.94,1.693c1.067,0.931,2.283,1.841,2.702,2.022c0.58,0.25,0.809,0.606,0.958,1.487
		c0.108,0.637,0.115,1.288,0.017,1.448c-0.189,0.306,0.444,1.693,1.321,2.893c0.289,0.395,0.654,1.624,0.811,2.73
		c0.258,1.815,0.23,2.088-0.282,2.79c-0.324,0.444-0.571,1.247-0.575,1.868c-0.004,0.599-0.128,1.613-0.276,2.253
		c-0.148,0.64-0.482,2.321-0.743,3.736c-0.606,3.29-0.785,4.214-1.526,7.889c-0.335,1.66-0.609,3.411-0.609,3.891
		c0,0.48-0.175,1.58-0.388,2.443c-0.213,0.863-0.63,2.895-0.927,4.515c-0.297,1.62-0.647,2.946-0.779,2.946
		c-0.132,0-0.161,0.127-0.065,0.283c0.224,0.362-0.134,2.304-0.425,2.304c-0.121,0-0.363-0.172-0.537-0.382h0
		c-0.174-0.21-0.422-0.889-0.549-1.509c-0.224-1.085-0.28-1.13-1.497-1.218c-0.737-0.053-1.404-0.282-1.599-0.549
		c-0.306-0.418-0.394-0.416-1.016,0.019c-0.758,0.531-1.741,0.614-2.497,0.211c-0.274-0.147-0.725-0.336-1.002-0.422
		c-0.698-0.216-0.628-1.06,0.184-2.215c0.378-0.537,1.616-2.43,2.753-4.206c1.136-1.776,2.187-3.305,2.336-3.397
		c0.149-0.092,0.591-0.799,0.982-1.571l0.711-1.404l-0.982-0.466c-0.54-0.256-1.053-0.65-1.139-0.875
		c-0.086-0.225-0.373-0.409-0.637-0.409s-0.638-0.216-0.831-0.479c-0.242-0.331-0.773-0.479-1.719-0.479
		c-1.272,0-1.396-0.066-1.759-0.934c-0.274-0.657-0.64-0.989-1.234-1.119c-0.464-0.102-0.916-0.372-1.003-0.599
		c-0.208-0.543-1.012-0.531-1.222,0.018c-0.091,0.237-0.461,0.431-0.822,0.431s-0.724,0.175-0.806,0.389
		c-0.088,0.229-0.832,0.469-1.81,0.584c-1.336,0.157-1.71,0.109-1.908-0.245c-0.135-0.242-0.458-0.44-0.716-0.44
		s-0.737-0.248-1.063-0.55c-0.758-0.703-2.792-0.914-2.979-0.309c-0.277,0.896-1.026,1.434-1.997,1.434
		c-0.723,0-1.026,0.144-1.128,0.536c-0.11,0.421-0.515,0.575-1.883,0.718c-0.959,0.1-1.886,0.071-2.06-0.065
		c-0.421-0.329-2.372-0.619-2.604-0.387c-0.101,0.101-0.979,0.193-1.953,0.206c-1.341,0.018-1.895-0.102-2.285-0.493
		c-0.284-0.284-0.759-0.516-1.057-0.516c-0.298,0-0.751-0.319-1.006-0.708c-0.514-0.784-0.626-2.166-0.177-2.166
		c0.464,0,0.347-2.754-0.134-3.153c-0.232-0.192-1.057-0.394-1.833-0.447c-2.151-0.149-3.637-1.768-2.494-2.717
		c0.309-0.256,0.346-0.482,0.135-0.825c-0.159-0.26-0.596-0.99-0.969-1.622c-0.462-0.782-0.942-1.204-1.5-1.32
		c-1.474-0.306-2.114-0.608-2.114-0.998c0-0.352-3.307-2.137-3.96-2.137c-0.403,0-1.184-1.266-1.176-1.906
		c0.017-1.495-1.341-4.416-2.053-4.416c-0.139,0-0.602-0.323-1.028-0.718c-0.426-0.395-0.948-0.718-1.159-0.718
		s-0.466-0.327-0.566-0.726c-0.212-0.844-0.904-1.286-2.014-1.286c-0.433,0-1.029-0.219-1.324-0.487
		c-0.422-0.382-1.003-0.472-2.706-0.418c-1.928,0.062-2.332-0.023-3.652-0.762c-0.816-0.457-1.862-0.924-2.324-1.037
		c-0.896-0.22-2.644-1.912-3.054-2.957c-0.161-0.411-0.59-0.695-1.229-0.815c-1.567-0.294-2.337-0.08-2.445,0.681l-0.095,0.671
		l-4.595-0.097c-4.016-0.085-4.631-0.16-4.877-0.6c-0.216-0.387-0.659-0.503-1.919-0.505c-1.497-0.002-1.669-0.069-1.997-0.776
		c-0.198-0.425-0.359-1.068-0.359-1.427c0-0.438-0.289-0.803-0.875-1.106c-0.481-0.249-0.992-0.762-1.136-1.141
		c-0.225-0.591-0.4-0.666-1.237-0.531c-0.717,0.116-1.347-0.04-2.382-0.591c-0.774-0.412-1.57-0.749-1.768-0.749
		c-0.199,0-0.605-0.226-0.903-0.503c-0.298-0.277-1.208-1.02-2.023-1.652c-2.047-1.588-5.062-4.496-5.277-5.089
		c-0.098-0.27-0.605-0.601-1.126-0.735c-1.305-0.336-1.374-1.176-0.194-2.357c0.906-0.906,0.97-0.923,2.745-0.733
		c1.431,0.153,1.851,0.109,1.973-0.21c0.206-0.536-0.37-2.02-0.703-1.814c-0.143,0.089-0.351-0.49-0.46-1.286
		c-0.172-1.25-0.088-1.671,0.62-3.084c0.45-0.9,1.104-1.777,1.453-1.95c0.349-0.172,0.967-0.646,1.374-1.053
		c0.774-0.774,2.491-1.271,3.097-0.897c0.498,0.308,1.919,0.117,2.94-0.395c1.197-0.601,1.855-1.504,1.863-2.558
		c0.004-0.581,0.357-1.334,1.009-2.155c0.552-0.694,1.004-1.375,1.006-1.514c0.003-0.306,1.435-2.054,3.092-3.775
		c0.672-0.697,1.221-1.506,1.221-1.796s0.162-0.692,0.359-0.893c0.29-0.294,0.204-0.327-0.443-0.167
		c-0.688,0.17-0.942,0.04-1.784-0.914c-0.54-0.612-0.987-1.402-0.994-1.756c-0.007-0.354-0.271-0.806-0.587-1.003
		c-0.847-0.529-0.702-1.473,0.395-2.57c0.815-0.814,1.003-1.255,1.176-2.744c0.113-0.975,0.112-1.926-0.004-2.112
		c-0.115-0.186-0.353-2.101-0.529-4.254c-0.305-3.729-0.351-3.92-0.966-4.007c-0.459-0.065-0.647-0.286-0.647-0.76
		c0-0.675,0.48-1.017,1.427-1.017c0.285,0,0.728-0.32,0.983-0.71c0.4-0.61,0.416-0.904,0.115-2.083
		c-0.193-0.755-0.71-1.798-1.151-2.317c-1.013-1.194-1.163-3.098-0.226-2.852c0.493,0.129,0.575,0.009,0.575-0.847
		c0-0.549,0.135-1.25,0.3-1.558c0.232-0.434,0.2-0.599-0.144-0.73c-0.244-0.094-0.443-0.407-0.443-0.697
		c0-0.668-0.341-0.883-0.874-0.554c-0.31,0.192-0.525,0.023-0.849-0.666c-0.238-0.507-0.73-1.052-1.093-1.21
		c-0.501-0.218-0.646-0.496-0.605-1.15c0.118-1.841,0.009-2.155-0.747-2.155c-0.395,0-0.718-0.129-0.718-0.287
		c0-0.158-0.191-0.287-0.424-0.287c-0.324,0-0.381-0.219-0.24-0.934c0.277-1.406,0.88-2.713,1.332-2.886
		c0.299-0.115,0.366-0.53,0.261-1.615c-0.113-1.172-0.055-1.461,0.292-1.461c0.507,0,1.1,0.652,1.52,1.669l0.298,0.723l0.947-1.196
		c0.521-0.658,1.13-1.196,1.354-1.196c0.268,0,0.407-0.32,0.407-0.937c0-0.637,0.191-1.056,0.597-1.309
		c0.405-0.253,0.51-0.483,0.327-0.716c-0.148-0.189-0.362-0.731-0.475-1.205c-0.113-0.474-0.371-1.056-0.573-1.293
		c-0.202-0.237-0.602-1.099-0.888-1.916c-0.493-1.405-0.495-1.526-0.03-2.235c0.27-0.412,0.414-0.876,0.319-1.029
		c-0.258-0.417,1.226-0.338,1.497,0.08c0.128,0.198,0.362,0.747,0.52,1.221c0.178,0.535,0.516,0.895,0.889,0.948
		c0.351,0.05,0.868,0.56,1.24,1.221c0.351,0.624,0.827,1.135,1.058,1.135s0.536,0.306,0.678,0.679
		c0.142,0.374,0.462,0.758,0.711,0.853c0.665,0.255,0.569,1.365-0.133,1.549c-0.731,0.191-0.581,0.768,0.23,0.888
		c0.922,0.136,1.199-0.69,0.889-2.653c-0.148-0.936-0.198-1.885-0.112-2.11c0.2-0.522-0.898-2.08-1.466-2.08
		c-0.28,0-0.399-0.22-0.34-0.629c0.071-0.489,0.41-0.71,1.523-0.993c0.787-0.2,1.577-0.564,1.756-0.808s0.434-0.444,0.567-0.444
		c0.133,0,0.658-0.403,1.166-0.896c0.508-0.493,1.216-1.042,1.572-1.221c0.65-0.326,1.436-1.425,1.981-2.768
		c0.512-1.262,0.755-1.564,1.9-2.361c0.923-0.642,1.44-0.782,2.917-0.79c1.748-0.009,1.806-0.034,2.199-0.944
		c0.382-0.884,0.364-0.97-0.333-1.607c-0.702-0.641-0.715-0.709-0.286-1.437c0.501-0.848,0.946-2.779,0.827-3.583
		c-0.043-0.286,0.094-0.731,0.303-0.988c0.328-0.403,0.311-0.442-0.123-0.279c-0.39,0.146-0.503,0.036-0.503-0.487
		c0-0.441,0.206-0.73,0.591-0.831c0.518-0.136,0.546-0.227,0.223-0.745c-0.291-0.466-0.294-0.664-0.017-0.942
		c0.194-0.194,0.352-0.627,0.352-0.963c0-0.685,0.895-1.582,2.083-2.087c0.435-0.185,0.79-0.531,0.79-0.769
		c0-0.238,0.431-0.613,0.958-0.833s1.224-0.739,1.55-1.153c0.69-0.877,0.992-0.922,1.955-0.291c0.911,0.597,1.573,0.332,1.573-0.631
		c0-0.828-0.002-0.828,2.155-0.007c2.429,0.924,3.88,0.332,3.88-1.584c0-2.267,0.982-2.765,3.592-1.824
		c0.709,0.255,2.251,0.415,4.023,0.417l2.874,0.003l2.012-1.584c1.106-0.871,2.579-2.034,3.273-2.585
		c0.694-0.55,1.422-1.001,1.62-1.001s0.729-0.193,1.182-0.429c0.453-0.236,1.017-0.431,1.254-0.434
		c0.797-0.008,3.448-1.72,3.458-2.232c0.005-0.273,0.193-0.739,0.417-1.035c0.249-0.329,0.343-0.86,0.242-1.365
		c-0.163-0.815-0.147-0.827,1.164-0.827c1.012,0,1.329,0.107,1.329,0.448c0,0.246,0.127,0.37,0.282,0.274
		c0.178-0.11,0.158-0.371-0.055-0.712c-0.431-0.69,0.13-1.447,1.071-1.447c0.359,0,0.727-0.194,0.818-0.431
		c0.121-0.315,0.617-0.431,1.841-0.431c0.922,0,1.799,0.107,1.949,0.239c0.15,0.131,0.808,0.391,1.461,0.576
		c0.654,0.186,1.27,0.563,1.37,0.839c0.1,0.276,0.371,0.825,0.604,1.22c0.494,0.841,0.572,2.586,0.116,2.586
		c-0.173,0-0.88,0.497-1.57,1.105c-0.997,0.877-1.915,1.305-4.459,2.076l-3.203,0.971l-0.902,1.445
		c-0.496,0.795-1.225,2.122-1.62,2.949c-0.617,1.293-0.834,1.505-1.54,1.509c-0.816,0.005-2.181,1.009-2.191,1.612
		c-0.003,0.173-0.25,0.537-0.55,0.808c-0.3,0.271-0.633,1.035-0.742,1.697c-0.184,1.125-0.824,2.419-2.377,4.809
		c-0.355,0.546-0.646,1.351-0.647,1.787c0,0.437-0.115,1.019-0.255,1.293c-0.917,1.802-0.996,2.094-0.66,2.43
		c0.531,0.531,0.407,1.061-0.523,2.236c-0.474,0.599-0.862,1.213-0.862,1.366s-0.449,0.845-0.999,1.539
		c-0.924,1.168-1.541,2.698-1.218,3.021c0.075,0.075,0.609-0.128,1.186-0.452c1.135-0.637,1.893-0.758,1.893-0.301
		c0,0.542,1.15,1.437,1.846,1.437c0.772,0,1.015,0.538,1.619,3.592c0.291,1.471,0.588,2.003,2.025,3.624
		c1.644,1.855,1.688,1.95,1.878,3.988c0.176,1.893,0.139,2.132-0.397,2.554c-0.516,0.407-0.604,0.849-0.691,3.484l-0.1,3.018
		L221.585,64c1.77,0.084,1.796,0.098,1.796,0.917c0,0.457,0.126,0.909,0.279,1.004s0.534,0.749,0.846,1.454
		c0.49,1.107,0.684,1.281,1.431,1.281c0.52,0,0.975-0.198,1.142-0.497c0.243-0.435,0.401-0.453,1.256-0.144
		c0.55,0.199,2.357,0.354,4.133,0.354c1.883,0,3.281,0.126,3.467,0.312c0.224,0.224,0.769,0.095,1.935-0.457
		c1.392-0.658,1.838-0.739,3.123-0.564c0.824,0.112,1.583,0.336,1.685,0.498c0.382,0.603,2.212,1.005,3.469,0.762
		c0.677-0.131,1.365-0.244,1.529-0.25c0.36-0.015,5.7,7.034,6.599,8.713c0.544,1.016,0.759,1.179,1.468,1.117
		c0.457-0.04,1.122,0.08,1.478,0.265c0.552,0.287,0.753,0.237,1.361-0.334c0.69-0.648,0.797-0.661,3.232-0.386
		c3.324,0.376,10.606-0.261,11.337-0.992c0.373-0.373,2.563-0.457,4.329-0.165c0.922,0.152,1.079,0.287,1.087,0.931
		c0.005,0.414,0.199,1.004,0.431,1.311c0.642,0.849,0.51,1.496-0.445,2.175c-1.212,0.863-1.72,2.005-1.72,3.869
		c0,1.396-0.083,1.634-0.647,1.849c-0.356,0.136-0.887,0.515-1.182,0.841c-0.479,0.532-0.499,0.743-0.19,2.032
		c0.203,0.844,0.254,1.829,0.124,2.385c-0.121,0.521-0.188,1.245-0.147,1.609c0.041,0.364-0.089,1.298-0.288,2.075
		c-0.323,1.26-0.307,1.474,0.144,1.973c0.36,0.398,0.483,0.936,0.426,1.863c-0.055,0.888,0.068,1.468,0.385,1.82
		c0.256,0.284,0.55,0.905,0.654,1.379s0.302,1.121,0.442,1.437c0.139,0.316,0.291,0.898,0.337,1.293
		c0.066,0.57,0.267,0.736,0.97,0.805c0.797,0.078,0.925,0.23,1.274,1.512c0.214,0.784,0.623,1.638,0.91,1.898
		c0.287,0.26,0.518,0.743,0.512,1.074c-0.01,0.606-0.899,1.895-1.308,1.895c-0.215,0-4.493,3.993-4.658,4.348
		c-0.046,0.1,0.51,0.27,1.236,0.379c0.999,0.15,1.38,0.354,1.564,0.84c0.134,0.353,0.689,0.947,1.233,1.319s1.285,1.109,1.646,1.637
		s0.77,0.96,0.908,0.96s0.25,0.581,0.25,1.291c0,0.98,0.139,1.377,0.575,1.65c0.37,0.231,0.575,0.67,0.575,1.234
		c0,0.844,0.876,3.686,1.444,4.681c0.534,0.937,1.215,3.084,1.347,4.247C285.526,136.842,284.979,137.628,283.891,137.628z"/>
	<path display="inline" fill="#FFFFFF" d="M284.026,131.252c-0.567-0.995-1.444-3.836-1.444-4.681c0-0.564-0.204-1.003-0.575-1.234
		c-0.436-0.272-0.575-0.67-0.575-1.65c0-0.71-0.113-1.291-0.25-1.291s-0.546-0.432-0.908-0.96s-1.103-1.265-1.646-1.637
		s-1.098-0.966-1.233-1.319c-0.185-0.486-0.565-0.69-1.564-0.84c-0.726-0.109-1.282-0.279-1.236-0.379
		c0.166-0.355,4.443-4.348,4.658-4.348c0.409,0,1.298-1.289,1.308-1.895c0.005-0.331-0.225-0.815-0.512-1.074
		c-0.287-0.26-0.697-1.114-0.91-1.898c-0.349-1.282-0.478-1.434-1.274-1.512c-0.703-0.069-0.903-0.235-0.97-0.805
		c-0.046-0.395-0.198-0.977-0.337-1.293c-0.139-0.316-0.338-0.963-0.442-1.437s-0.398-1.095-0.654-1.379
		c-0.317-0.352-0.44-0.932-0.385-1.82c0.057-0.927-0.066-1.465-0.426-1.863c-0.452-0.499-0.467-0.713-0.144-1.973
		c0.199-0.777,0.329-1.711,0.288-2.075c-0.041-0.364,0.025-1.088,0.147-1.609c0.13-0.556,0.078-1.54-0.124-2.385
		c-0.309-1.289-0.29-1.5,0.19-2.032c0.294-0.327,0.826-0.705,1.182-0.841c0.564-0.216,0.647-0.453,0.647-1.849
		c0-1.864,0.507-3.006,1.72-3.869c0.955-0.68,1.087-1.326,0.445-2.175c-0.232-0.307-0.426-0.897-0.431-1.311
		c-0.008-0.644-0.164-0.778-1.087-0.931c-1.767-0.292-3.956-0.209-4.329,0.165c-0.731,0.731-8.013,1.368-11.337,0.992
		c-2.435-0.275-2.542-0.263-3.232,0.386c-0.608,0.571-0.81,0.621-1.361,0.334c-0.356-0.185-1.021-0.304-1.478-0.265
		c-0.709,0.061-0.923-0.102-1.468-1.117c-0.9-1.679-6.239-8.728-6.599-8.713c-0.164,0.007-0.852,0.12-1.529,0.25
		c-1.257,0.243-3.087-0.159-3.469-0.762c-0.102-0.162-0.861-0.386-1.685-0.498c-1.284-0.175-1.731-0.094-3.123,0.564
		c-1.167,0.552-1.712,0.68-1.935,0.457c-0.186-0.186-1.583-0.312-3.467-0.312c-1.776,0-3.583-0.155-4.133-0.354
		c-0.855-0.309-1.013-0.291-1.256,0.144c-0.168,0.299-0.622,0.497-1.142,0.497c-0.747,0-0.941-0.174-1.431-1.281
		c-0.312-0.705-0.692-1.359-0.846-1.454s-0.279-0.547-0.279-1.004c0-0.819-0.026-0.833-1.796-0.917l-1.796-0.086l0.1-3.018
		c0.087-2.634,0.175-3.077,0.691-3.484c0.536-0.423,0.573-0.661,0.397-2.554c-0.19-2.039-0.234-2.133-1.878-3.988
		c-1.437-1.621-1.734-2.153-2.025-3.624c-0.604-3.055-0.847-3.592-1.619-3.592c-0.696,0-1.846-0.895-1.846-1.437
		c0-0.457-0.758-0.336-1.893,0.301c-0.577,0.324-1.11,0.527-1.186,0.452c-0.323-0.323,0.293-1.853,1.218-3.021
		c0.549-0.694,0.999-1.387,0.999-1.539s0.388-0.767,0.862-1.366c0.93-1.174,1.054-1.705,0.523-2.236
		c-0.336-0.336-0.257-0.629,0.66-2.43c0.14-0.274,0.255-0.856,0.255-1.293c0.001-0.437,0.292-1.241,0.647-1.787
		c1.553-2.39,2.193-3.684,2.377-4.809c0.108-0.662,0.442-1.426,0.742-1.697c0.3-0.271,0.547-0.635,0.55-0.808
		c0.009-0.603,1.375-1.608,2.191-1.612c0.706-0.004,0.923-0.216,1.54-1.509c0.395-0.827,1.124-2.154,1.62-2.949l0.902-1.445
		l3.203-0.971c2.544-0.771,3.462-1.198,4.459-2.076c0.69-0.608,1.397-1.105,1.57-1.105c0.457,0,0.379-1.745-0.116-2.586
		c-0.232-0.395-0.504-0.944-0.604-1.22c-0.1-0.276-0.716-0.653-1.37-0.839c-0.654-0.186-1.311-0.445-1.461-0.576
		c-0.15-0.131-1.027-0.239-1.949-0.239c-1.225,0-1.72,0.116-1.841,0.431c-0.091,0.237-0.459,0.431-0.818,0.431
		c-0.941,0-1.501,0.757-1.071,1.447c0.213,0.341,0.233,0.602,0.055,0.712c-0.155,0.096-0.282-0.028-0.282-0.274
		c0-0.341-0.317-0.448-1.329-0.448c-1.311,0-1.327,0.011-1.164,0.827c0.101,0.505,0.007,1.036-0.242,1.365
		c-0.224,0.296-0.412,0.762-0.417,1.035c-0.009,0.513-2.66,2.224-3.458,2.232c-0.237,0.002-0.802,0.198-1.254,0.434
		c-0.453,0.236-0.985,0.429-1.182,0.429s-0.926,0.45-1.62,1.001c-0.694,0.55-2.166,1.714-3.273,2.585l-2.012,1.584l-2.874-0.003
		c-1.772-0.002-3.315-0.161-4.023-0.417c-2.611-0.941-3.592-0.442-3.592,1.824c0,1.916-1.451,2.508-3.88,1.584
		c-2.158-0.821-2.155-0.821-2.155,0.007c0,0.963-0.661,1.228-1.573,0.631c-0.963-0.631-1.265-0.586-1.955,0.291
		c-0.326,0.414-1.023,0.933-1.55,1.153s-0.958,0.595-0.958,0.833c0,0.238-0.356,0.585-0.79,0.769
		c-1.188,0.505-2.083,1.402-2.083,2.087c0,0.336-0.158,0.769-0.352,0.963c-0.278,0.278-0.274,0.477,0.017,0.942
		c0.323,0.517,0.296,0.609-0.223,0.745c-0.385,0.101-0.591,0.39-0.591,0.831c0,0.524,0.113,0.634,0.503,0.487
		c0.434-0.163,0.451-0.124,0.123,0.279c-0.209,0.257-0.345,0.702-0.303,0.988c0.12,0.804-0.326,2.735-0.827,3.583
		c-0.43,0.728-0.416,0.796,0.286,1.437c0.697,0.637,0.715,0.723,0.333,1.607c-0.393,0.909-0.451,0.934-2.199,0.944
		c-1.477,0.008-1.994,0.148-2.917,0.79c-1.145,0.797-1.388,1.1-1.9,2.361c-0.545,1.343-1.331,2.442-1.981,2.768
		c-0.356,0.179-1.064,0.729-1.572,1.221c-0.508,0.493-1.033,0.896-1.166,0.896c-0.133,0-0.388,0.2-0.567,0.444
		s-0.969,0.608-1.756,0.808c-1.113,0.283-1.452,0.504-1.523,0.993c-0.06,0.409,0.059,0.629,0.34,0.629
		c0.568,0,1.666,1.558,1.466,2.08c-0.086,0.224-0.036,1.174,0.112,2.11c0.31,1.963,0.033,2.789-0.889,2.653
		c-0.812-0.12-0.961-0.697-0.23-0.888c0.703-0.184,0.799-1.293,0.133-1.549c-0.249-0.096-0.569-0.48-0.711-0.853
		c-0.142-0.374-0.447-0.679-0.678-0.679s-0.707-0.511-1.058-1.135c-0.372-0.662-0.889-1.171-1.24-1.221
		c-0.373-0.053-0.711-0.413-0.889-0.948c-0.158-0.474-0.392-1.024-0.52-1.221c-0.27-0.418-1.755-0.497-1.497-0.08
		c0.095,0.154-0.049,0.617-0.319,1.029c-0.465,0.71-0.463,0.83,0.03,2.235c0.287,0.817,0.686,1.679,0.888,1.916
		c0.202,0.237,0.46,0.819,0.573,1.293c0.113,0.474,0.327,1.017,0.475,1.205c0.183,0.233,0.078,0.463-0.327,0.716
		c-0.406,0.253-0.597,0.672-0.597,1.309c0,0.616-0.139,0.937-0.407,0.937c-0.224,0-0.833,0.538-1.354,1.196l-0.947,1.196
		l-0.298-0.723c-0.42-1.017-1.013-1.669-1.52-1.669c-0.347,0-0.405,0.29-0.292,1.461c0.104,1.085,0.037,1.501-0.261,1.615
		c-0.451,0.173-1.054,1.481-1.332,2.886c-0.141,0.715-0.085,0.934,0.24,0.934c0.233,0,0.424,0.129,0.424,0.287
		c0,0.158,0.323,0.287,0.718,0.287c0.756,0,0.865,0.315,0.747,2.155c-0.042,0.654,0.104,0.932,0.605,1.15
		c0.363,0.158,0.855,0.702,1.093,1.21c0.323,0.689,0.538,0.857,0.849,0.666c0.534-0.33,0.874-0.114,0.874,0.554
		c0,0.29,0.2,0.604,0.443,0.697c0.343,0.132,0.376,0.297,0.144,0.73c-0.165,0.308-0.3,1.009-0.3,1.558
		c0,0.856-0.081,0.977-0.575,0.847c-0.938-0.245-0.787,1.658,0.226,2.852c0.44,0.519,0.958,1.562,1.151,2.317
		c0.301,1.18,0.284,1.474-0.115,2.083c-0.256,0.391-0.698,0.71-0.983,0.71c-0.948,0-1.427,0.342-1.427,1.017
		c0,0.474,0.188,0.694,0.647,0.76c0.616,0.087,0.662,0.278,0.966,4.007c0.176,2.153,0.414,4.068,0.529,4.254
		c0.115,0.186,0.117,1.137,0.004,2.112c-0.173,1.489-0.361,1.929-1.176,2.744c-1.097,1.097-1.242,2.041-0.395,2.57
		c0.316,0.197,0.58,0.649,0.587,1.003c0.007,0.354,0.454,1.144,0.994,1.756c0.842,0.953,1.096,1.084,1.784,0.914
		c0.647-0.16,0.733-0.128,0.443,0.167c-0.198,0.201-0.359,0.603-0.359,0.893s-0.55,1.099-1.221,1.796
		c-1.658,1.721-3.089,3.468-3.092,3.775c-0.002,0.139-0.454,0.82-1.006,1.514c-0.653,0.821-1.005,1.574-1.009,2.155
		c-0.008,1.054-0.666,1.957-1.863,2.558c-1.02,0.512-2.442,0.703-2.94,0.395c-0.606-0.375-2.323,0.122-3.097,0.897
		c-0.407,0.407-1.025,0.881-1.374,1.053c-0.349,0.173-1.003,1.05-1.453,1.95c-0.707,1.413-0.792,1.833-0.62,3.084
		c0.109,0.796,0.317,1.375,0.46,1.286c0.333-0.206,0.908,1.278,0.703,1.814c-0.122,0.318-0.543,0.363-1.973,0.21
		c-1.775-0.19-1.84-0.173-2.745,0.733c-1.18,1.18-1.111,2.02,0.194,2.357c0.521,0.134,1.028,0.465,1.126,0.735
		c0.215,0.593,3.23,3.501,5.277,5.089c0.815,0.632,1.725,1.376,2.023,1.652c0.298,0.277,0.704,0.503,0.903,0.503
		c0.199,0,0.995,0.337,1.768,0.749c1.035,0.551,1.665,0.707,2.382,0.591c0.837-0.136,1.012-0.061,1.237,0.531
		c0.144,0.379,0.655,0.892,1.136,1.141c0.586,0.303,0.875,0.668,0.875,1.106c0,0.36,0.162,1.002,0.359,1.427
		c0.328,0.707,0.5,0.774,1.997,0.776c1.26,0.002,1.703,0.118,1.919,0.505c0.246,0.44,0.86,0.515,4.877,0.6l4.595,0.097l0.095-0.671
		c0.108-0.761,0.877-0.975,2.445-0.681c0.638,0.12,1.068,0.405,1.229,0.815c0.41,1.045,2.158,2.737,3.054,2.957
		c0.462,0.113,1.508,0.58,2.324,1.037c1.32,0.74,1.724,0.824,3.652,0.762c1.703-0.054,2.283,0.035,2.706,0.418
		c0.296,0.268,0.892,0.487,1.324,0.487c1.111,0,1.803,0.442,2.014,1.286c0.1,0.399,0.355,0.726,0.566,0.726s0.732,0.323,1.159,0.718
		c0.426,0.395,0.889,0.718,1.028,0.718c0.713,0,2.071,2.921,2.053,4.416c-0.008,0.641,0.774,1.906,1.176,1.906
		c0.653,0,3.96,1.784,3.96,2.137c0,0.39,0.64,0.691,2.114,0.998c0.559,0.116,1.038,0.538,1.5,1.32
		c0.374,0.632,0.81,1.362,0.969,1.622c0.211,0.343,0.174,0.569-0.135,0.825c-1.143,0.949,0.343,2.568,2.494,2.717
		c0.776,0.054,1.601,0.255,1.833,0.447c0.481,0.399,0.598,3.153,0.134,3.153c-0.45,0-0.337,1.382,0.177,2.166
		c0.255,0.39,0.708,0.708,1.006,0.708c0.298,0,0.774,0.232,1.057,0.516c0.391,0.391,0.945,0.51,2.285,0.493
		c0.973-0.013,1.852-0.105,1.953-0.206c0.232-0.232,2.183,0.058,2.604,0.387c0.174,0.136,1.101,0.166,2.06,0.065
		c1.369-0.143,1.773-0.297,1.883-0.718c0.103-0.392,0.406-0.536,1.128-0.536c0.971,0,1.72-0.538,1.997-1.434
		c0.187-0.605,2.22-0.395,2.979,0.309c0.326,0.303,0.805,0.55,1.063,0.55s0.581,0.198,0.716,0.44
		c0.198,0.354,0.572,0.402,1.908,0.245c0.979-0.115,1.723-0.355,1.81-0.584c0.082-0.214,0.445-0.389,0.806-0.389
		s0.731-0.194,0.822-0.431c0.211-0.549,1.014-0.56,1.222-0.018c0.087,0.227,0.539,0.497,1.003,0.599
		c0.594,0.13,0.96,0.462,1.234,1.119c0.363,0.868,0.486,0.934,1.759,0.934c0.946,0,1.477,0.148,1.719,0.479
		c0.193,0.263,0.566,0.479,0.831,0.479s0.551,0.184,0.637,0.409c0.086,0.225,0.599,0.619,1.139,0.875l0.982,0.466l-0.711,1.404
		c-0.391,0.772-0.833,1.479-0.982,1.571c-0.149,0.092-1.2,1.621-2.336,3.397c-1.136,1.776-2.375,3.669-2.753,4.206
		c-0.812,1.154-0.882,1.999-0.184,2.215c0.277,0.086,0.727,0.276,1.002,0.422c0.756,0.403,1.739,0.321,2.497-0.211
		c0.621-0.435,0.71-0.437,1.016-0.019c0.195,0.267,0.862,0.496,1.599,0.549c1.217,0.088,1.273,0.133,1.497,1.218
		c0.128,0.62,0.375,1.299,0.549,1.509h0c0.174,0.21,0.416,0.382,0.537,0.382c0.291,0,0.649-1.942,0.425-2.304
		c-0.096-0.155-0.067-0.283,0.065-0.283c0.132,0,0.482-1.326,0.779-2.946c0.297-1.62,0.714-3.652,0.927-4.515
		c0.213-0.863,0.388-1.962,0.388-2.443c0-0.48,0.275-2.232,0.609-3.891c0.741-3.675,0.92-4.599,1.526-7.889
		c0.261-1.415,0.595-3.096,0.743-3.736c0.148-0.64,0.272-1.654,0.276-2.253c0.004-0.621,0.251-1.424,0.575-1.868
		c0.513-0.703,0.54-0.975,0.282-2.79c-0.157-1.106-0.522-2.335-0.811-2.73c-0.877-1.2-1.51-2.587-1.321-2.893
		c0.098-0.159,0.091-0.811-0.017-1.448c-0.149-0.881-0.378-1.237-0.958-1.487c-0.419-0.181-1.635-1.091-2.702-2.022l-1.94-1.693
		v-3.815c0-4.227,0.026-4.29,1.868-4.605c1.581-0.27,3.004-0.708,3.999-1.229c0.787-0.412,0.868-0.401,1.339,0.18
		c0.502,0.62,2.195,0.853,3.25,0.448c0.885-0.34-0.096-4.392-1.2-4.959c-0.454-0.233-3.82-0.637-6.032-0.724l-0.942-0.037
		l0.08-3.449l0.08-3.449l9.699-0.076c10.287-0.08,10.504-0.113,9.106-1.378c-0.56-0.507-0.564-0.548-0.072-0.721
		c0.351-0.124,0.907,0.131,1.701,0.78c1.512,1.236,2.413,1.287,2.413,0.135c0-0.949,0.981-1.757,2.134-1.757
		c0.395,0,0.848-0.162,1.009-0.359c0.16-0.198,0.598-0.737,0.972-1.198c1.039-1.28,1.633-0.87,1.633,1.128
		c0,1.494,0.077,1.674,1.15,2.695c0.706,0.672,1.153,1.36,1.159,1.785c0.005,0.38,0.199,0.942,0.431,1.249
		c0.232,0.307,0.422,0.97,0.422,1.473c0,1.878,0.314,2.711,1.021,2.711c1.088,0,1.635-0.786,1.482-2.129
		C285.241,134.336,284.56,132.189,284.026,131.252z"/>
</g>
<g id="Capa_2" display="none">
	<g display="inline">
		<path opacity="0.4" fill="#FFFFFF" d="M263.873,49.184c0.001-0.067,0.002-0.133,0.002-0.2c0-24.959-20.233-45.192-45.192-45.192
			s-45.192,20.234-45.192,45.192c0,0.067,0.002,0.133,0.002,0.2c-22.969,2.138-40.95,21.464-40.95,44.992
			c0,24.959,20.233,45.192,45.192,45.192c5.356,0,10.492-0.939,15.259-2.649l-8.924,62.336h69.225l-10.835-63.07
			c5.294,2.177,11.091,3.383,17.17,3.383c24.959,0,45.192-20.233,45.192-45.192C304.823,70.648,286.843,51.322,263.873,49.184z"/>
		<g>
			<path fill="#FFFFFF" d="M218.615,113.314c-4.379,9.353-11.87,16.953-21.136,21.482l-8.603,60.093h59.478l-10.491-61.067
				C229.467,129.217,222.693,122.023,218.615,113.314z"/>
			<path fill="#FFFFFF" d="M289.89,66.473c-6.901-7.532-16.278-12.199-26.403-13.141l-3.804-0.355l0.027-3.993
				c0-22.622-18.404-41.026-41.026-41.026c-22.622,0-41.027,18.404-41.026,41.049l0.002,0.177v3.795l-3.779,0.353
				c-10.126,0.942-19.503,5.609-26.403,13.141c-6.943,7.578-10.767,17.416-10.767,27.703c0,22.622,18.405,41.026,41.026,41.026
				c15.855,0,30.447-9.285,37.175-23.654l3.773-8.059l3.773,8.059c6.728,14.369,21.32,23.654,37.175,23.654
				c22.622,0,41.026-18.404,41.026-41.026C300.657,83.889,296.834,74.051,289.89,66.473z"/>
		</g>
	</g>
</g>
<g id="Capa_3">
	<g>
		<g>
			<path opacity="0.4" fill="#FFFFFF" d="M82.62,33.238l44.868,3.731l-13.101,157.517l-29.768-2.476L95.377,62.657L62.93,59.959
				L82.62,33.238z"/>
			<polygon fill="#FFFFFF" points="88.949,188.345 99.707,58.99 70.422,56.555 84.52,37.422 123.156,40.635 110.721,190.156 			"/>
		</g>
		<g>
			<path opacity="0.4" fill="#FFFFFF" d="M172.208,88.497l-27.936,4.589c-1.917-16.359,1.083-29.972,9.004-40.837
				c7.918-10.864,19.279-17.512,34.084-19.943c9.141-1.502,17.524-0.898,25.152,1.806c7.626,2.707,14.134,7.347,19.523,13.923
				c5.389,6.577,8.7,13.618,9.932,21.122c1.468,8.937,0.505,18.975-2.888,30.11c-3.394,11.138-10.692,24.842-21.898,41.115
				l-13.969,20.58l53.649-8.812l4.353,26.504l-104.277,17.128l-2.252-13.713l38.762-55.13c9.386-13.241,15.366-23.63,17.947-31.165
				c2.581-7.534,3.413-14.099,2.495-19.695c-0.952-5.798-3.669-10.275-8.144-13.427c-4.477-3.153-9.751-4.232-15.822-3.234
				c-6.141,1.009-10.882,4.136-14.224,9.378C172.356,74.04,171.192,80.608,172.208,88.497z"/>
			<path fill="#FFFFFF" d="M160.129,191.336l-1.368-8.331l37.853-53.837c9.679-13.657,15.716-24.174,18.444-32.137
				c2.778-8.112,3.67-15.371,2.651-21.577c-1.122-6.834-4.398-12.205-9.734-15.966c-5.316-3.744-11.602-5.052-18.681-3.889
				c-7.243,1.19-12.917,4.93-16.861,11.117c-3.273,5.136-4.749,11.36-4.4,18.544l-20.285,3.332
				c-0.887-13.513,2.02-24.956,8.658-34.061c7.363-10.103,17.694-16.123,31.582-18.404c8.443-1.386,16.259-0.836,23.23,1.635
				c6.915,2.455,12.911,6.738,17.821,12.729c4.927,6.013,7.992,12.505,9.107,19.295c1.364,8.303,0.432,17.842-2.771,28.354
				c-3.261,10.705-10.455,24.179-21.383,40.047l-19.044,28.059l58.72-9.645l3.098,18.863L160.129,191.336z"/>
		</g>
		<g>
			<path opacity="0.4" fill="#FFFFFF" d="M309.13,43.793l-28.416-4.409c3.261-11.249,8.812-19.836,16.653-25.759
				c10.945-8.254,23.565-11.272,37.861-9.054c12.745,1.977,22.804,7.686,30.175,17.122c7.369,9.437,10.192,19.719,8.466,30.846
				c-1.071,6.902-3.933,12.912-8.585,18.032c-4.653,5.119-10.844,8.882-18.574,11.289c9,4.282,15.613,10.338,19.845,18.17
				c4.228,7.833,5.607,16.501,4.132,26.008c-2.163,13.944-9.138,24.961-20.922,33.047c-11.785,8.089-25.634,10.898-41.549,8.428
				c-15.071-2.338-26.652-8.804-34.744-19.399c-8.093-10.595-11.379-23.816-9.857-39.662l29.262,4.54
				c0.021,8.225,1.894,14.627,5.619,19.208c3.725,4.58,8.896,7.383,15.516,8.41c6.9,1.071,12.967-0.26,18.198-3.992
				c5.231-3.732,8.344-8.801,9.338-15.211c1.093-7.041-1.048-13.468-6.421-19.278c-5.372-5.809-13.824-9.68-25.35-11.613
				l3.933-25.353c7.2,0.541,12.672,0.254,16.414-0.861c3.742-1.113,6.804-2.963,9.191-5.551c2.384-2.587,3.828-5.499,4.331-8.739
				c0.656-4.225-0.28-7.957-2.806-11.199c-2.526-3.24-6.184-5.232-10.973-5.975c-4.225-0.656-8.264,0.034-12.112,2.069
				C313.906,36.944,311.03,39.906,309.13,43.793z"/>
			<path fill="#FFFFFF" d="M308.828,163.57c-14.144-2.195-24.672-8.042-32.184-17.878c-6.704-8.776-9.838-19.736-9.342-32.628
				l21.699,3.367c0.507,7.54,2.651,13.682,6.399,18.288c4.35,5.349,10.407,8.659,18.001,9.837
				c7.936,1.231,15.044-0.345,21.129-4.687c6.113-4.362,9.803-10.368,10.963-17.848c1.284-8.274-1.218-15.877-7.434-22.6
				c-5.321-5.753-13.298-9.814-23.747-12.095L317.1,69.36c5.957,0.234,10.615-0.173,14.165-1.23
				c4.418-1.314,8.116-3.559,10.985-6.671c2.921-3.169,4.718-6.813,5.341-10.833c0.827-5.335-0.384-10.136-3.601-14.265
				c-3.162-4.054-7.706-6.566-13.51-7.466c-5.074-0.787-9.982,0.049-14.59,2.485c-3.692,1.952-6.664,4.652-8.869,8.047
				l-21.042-3.265c3.089-8.264,7.716-14.761,13.794-19.351c10.139-7.646,21.535-10.36,34.843-8.295
				c11.814,1.833,20.856,6.947,27.643,15.635c6.722,8.611,9.23,17.697,7.665,27.777c-0.956,6.167-3.441,11.388-7.594,15.96
				c-4.148,4.562-9.802,7.982-16.805,10.162l-9.74,3.032l9.212,4.383c8.174,3.889,14.247,9.428,18.047,16.463
				c3.839,7.112,5.049,14.798,3.699,23.499c-2.006,12.928-8.298,22.862-19.236,30.369
				C336.491,163.356,323.838,165.899,308.828,163.57z"/>
		</g>
	</g>
</g>
</svg>
